<?xml version="1.0" encoding="UTF-8" standalone="no"?>
<svg
   xmlns:dc="http://purl.org/dc/elements/1.1/"
   xmlns:cc="http://creativecommons.org/ns#"
   xmlns:rdf="http://www.w3.org/1999/02/22-rdf-syntax-ns#"
   xmlns:svg="http://www.w3.org/2000/svg"
   xmlns="http://www.w3.org/2000/svg"
   xmlns:sodipodi="http://sodipodi.sourceforge.net/DTD/sodipodi-0.dtd"
   xmlns:inkscape="http://www.inkscape.org/namespaces/inkscape"
   version="1.1"
   viewBox="0.0 0.0 819.0866141732283 517.6955380577427"
   fill="none"
   stroke="none"
   stroke-linecap="square"
   stroke-miterlimit="10"
   id="svg191"
   sodipodi:docname="system.svg"
   inkscape:version="1.0.2 (e86c870879, 2021-01-15)">
  <metadata
     id="metadata197">
    <rdf:RDF>
      <cc:Work
         rdf:about="">
        <dc:format>image/svg+xml</dc:format>
        <dc:type
           rdf:resource="http://purl.org/dc/dcmitype/StillImage" />
      </cc:Work>
    </rdf:RDF>
  </metadata>
  <defs
     id="defs195">
    <marker
       style="overflow:visible;"
       id="marker2462"
       refX="0.0"
       refY="0.0"
       orient="auto"
       inkscape:stockid="Arrow2Mend"
       inkscape:isstock="true">
      <path
         transform="scale(0.6) rotate(180) translate(0,0)"
         d="M 8.7185878,4.0337352 L -2.2072895,0.016013256 L 8.7185884,-4.0017078 C 6.9730900,-1.6296469 6.9831476,1.6157441 8.7185878,4.0337352 z "
         style="fill-rule:evenodd;stroke-width:0.625;stroke-linejoin:round;stroke:#000000;stroke-opacity:1;fill:#000000;fill-opacity:1"
         id="path2460" />
    </marker>
    <marker
       style="overflow:visible;"
       id="marker2344"
       refX="0.0"
       refY="0.0"
       orient="auto"
       inkscape:stockid="Arrow2Mend"
       inkscape:isstock="true">
      <path
         transform="scale(0.6) rotate(180) translate(0,0)"
         d="M 8.7185878,4.0337352 L -2.2072895,0.016013256 L 8.7185884,-4.0017078 C 6.9730900,-1.6296469 6.9831476,1.6157441 8.7185878,4.0337352 z "
         style="fill-rule:evenodd;stroke-width:0.625;stroke-linejoin:round;stroke:#000000;stroke-opacity:1;fill:#000000;fill-opacity:1"
         id="path2342" />
    </marker>
    <marker
       style="overflow:visible;"
       id="marker2022"
       refX="0.0"
       refY="0.0"
       orient="auto"
       inkscape:stockid="Arrow2Mend"
       inkscape:isstock="true"
       inkscape:collect="always">
      <path
         transform="scale(0.6) rotate(180) translate(0,0)"
         d="M 8.7185878,4.0337352 L -2.2072895,0.016013256 L 8.7185884,-4.0017078 C 6.9730900,-1.6296469 6.9831476,1.6157441 8.7185878,4.0337352 z "
         style="fill-rule:evenodd;stroke-width:0.625;stroke-linejoin:round;stroke:#000000;stroke-opacity:1;fill:#000000;fill-opacity:1"
         id="path2020" />
    </marker>
    <marker
       style="overflow:visible"
       id="Arrow2Mstart"
       refX="0.0"
       refY="0.0"
       orient="auto"
       inkscape:stockid="Arrow2Mstart"
       inkscape:isstock="true">
      <path
         transform="scale(0.6) translate(0,0)"
         d="M 8.7185878,4.0337352 L -2.2072895,0.016013256 L 8.7185884,-4.0017078 C 6.9730900,-1.6296469 6.9831476,1.6157441 8.7185878,4.0337352 z "
         style="fill-rule:evenodd;stroke-width:0.625;stroke-linejoin:round;stroke:#000000;stroke-opacity:1"
         id="path1195" />
    </marker>
    <marker
       style="overflow:visible"
       id="marker1784"
       refX="0.0"
       refY="0.0"
       orient="auto"
       inkscape:stockid="TriangleInM"
       inkscape:isstock="true">
      <path
         transform="scale(-0.4)"
         style="fill-rule:evenodd;stroke:#000000;stroke-width:1pt;stroke-opacity:1"
         d="M 5.77,0.0 L -2.88,5.0 L -2.88,-5.0 L 5.77,0.0 z "
         id="path1782" />
    </marker>
    <marker
       style="overflow:visible"
       id="TriangleInL"
       refX="0.0"
       refY="0.0"
       orient="auto"
       inkscape:stockid="TriangleInL"
       inkscape:isstock="true">
      <path
         transform="scale(-0.8)"
         style="fill-rule:evenodd;stroke:#000000;stroke-width:1pt;stroke-opacity:1"
         d="M 5.77,0.0 L -2.88,5.0 L -2.88,-5.0 L 5.77,0.0 z "
         id="path1304" />
    </marker>
    <marker
       style="overflow:visible"
       id="TriangleInM"
       refX="0.0"
       refY="0.0"
       orient="auto"
       inkscape:stockid="TriangleInM"
       inkscape:isstock="true">
      <path
         transform="scale(-0.4)"
         style="fill-rule:evenodd;stroke:#000000;stroke-width:1pt;stroke-opacity:1"
         d="M 5.77,0.0 L -2.88,5.0 L -2.88,-5.0 L 5.77,0.0 z "
         id="path1307" />
    </marker>
    <marker
       style="overflow:visible;"
       id="marker1434"
       refX="0.0"
       refY="0.0"
       orient="auto"
       inkscape:stockid="Arrow2Mend"
       inkscape:isstock="true">
      <path
         transform="scale(0.6) rotate(180) translate(0,0)"
         d="M 8.7185878,4.0337352 L -2.2072895,0.016013256 L 8.7185884,-4.0017078 C 6.9730900,-1.6296469 6.9831476,1.6157441 8.7185878,4.0337352 z "
         style="fill-rule:evenodd;stroke-width:0.625;stroke-linejoin:round;stroke:#000000;stroke-opacity:1"
         id="path1198" />
    </marker>
    <marker
       style="overflow:visible;"
       id="marker1726"
       refX="0.0"
       refY="0.0"
       orient="auto"
       inkscape:stockid="Arrow2Mend"
       inkscape:isstock="true"
       inkscape:collect="always">
      <path
         transform="scale(0.6) rotate(180) translate(0,0)"
         d="M 8.7185878,4.0337352 L -2.2072895,0.016013256 L 8.7185884,-4.0017078 C 6.9730900,-1.6296469 6.9831476,1.6157441 8.7185878,4.0337352 z "
         style="fill-rule:evenodd;stroke-width:0.625;stroke-linejoin:round;stroke:#000000;stroke-opacity:1;fill:#000000;fill-opacity:1"
         id="path1724" />
    </marker>
    <marker
       style="overflow:visible;"
       id="marker1662"
       refX="0.0"
       refY="0.0"
       orient="auto"
       inkscape:stockid="Arrow2Lend"
       inkscape:isstock="true">
      <path
         transform="scale(1.1) rotate(180) translate(1,0)"
         d="M 8.7185878,4.0337352 L -2.2072895,0.016013256 L 8.7185884,-4.0017078 C 6.9730900,-1.6296469 6.9831476,1.6157441 8.7185878,4.0337352 z "
         style="fill-rule:evenodd;stroke-width:0.625;stroke-linejoin:round;stroke:#000000;stroke-opacity:1;fill:#000000;fill-opacity:1"
         id="path1660" />
    </marker>
    <marker
       style="overflow:visible;"
       id="marker1568"
       refX="0.0"
       refY="0.0"
       orient="auto"
       inkscape:stockid="Arrow2Lend"
       inkscape:isstock="true">
      <path
         transform="scale(1.1) rotate(180) translate(1,0)"
         d="M 8.7185878,4.0337352 L -2.2072895,0.016013256 L 8.7185884,-4.0017078 C 6.9730900,-1.6296469 6.9831476,1.6157441 8.7185878,4.0337352 z "
         style="fill-rule:evenodd;stroke-width:0.625;stroke-linejoin:round;stroke:#000000;stroke-opacity:1;fill:#000000;fill-opacity:1"
         id="path1566" />
    </marker>
    <marker
       style="overflow:visible;"
       id="marker1516"
       refX="0.0"
       refY="0.0"
       orient="auto"
       inkscape:stockid="Arrow1Lend"
       inkscape:isstock="true">
      <path
         transform="scale(0.8) rotate(180) translate(12.5,0)"
         style="fill-rule:evenodd;stroke:#000000;stroke-width:1pt;stroke-opacity:1"
         d="M 0.0,0.0 L 5.0,-5.0 L -12.5,0.0 L 5.0,5.0 L 0.0,0.0 z "
         id="path1514" />
    </marker>
    <marker
       style="overflow:visible;"
       id="marker1420"
       refX="0.0"
       refY="0.0"
       orient="auto"
       inkscape:stockid="Arrow2Lend"
       inkscape:isstock="true">
      <path
         transform="scale(1.1) rotate(180) translate(1,0)"
         d="M 8.7185878,4.0337352 L -2.2072895,0.016013256 L 8.7185884,-4.0017078 C 6.9730900,-1.6296469 6.9831476,1.6157441 8.7185878,4.0337352 z "
         style="fill-rule:evenodd;stroke-width:0.625;stroke-linejoin:round;stroke:#000000;stroke-opacity:1"
         id="path1418" />
    </marker>
    <marker
       style="overflow:visible;"
       id="marker1380"
       refX="0.0"
       refY="0.0"
       orient="auto"
       inkscape:stockid="Arrow1Lend"
       inkscape:isstock="true">
      <path
         transform="scale(0.8) rotate(180) translate(12.5,0)"
         style="fill-rule:evenodd;stroke:#000000;stroke-width:1pt;stroke-opacity:1"
         d="M 0.0,0.0 L 5.0,-5.0 L -12.5,0.0 L 5.0,5.0 L 0.0,0.0 z "
         id="path1378" />
    </marker>
    <marker
       style="overflow:visible;"
       id="Arrow2Lend"
       refX="0.0"
       refY="0.0"
       orient="auto"
       inkscape:stockid="Arrow2Lend"
       inkscape:isstock="true">
      <path
         transform="scale(1.1) rotate(180) translate(1,0)"
         d="M 8.7185878,4.0337352 L -2.2072895,0.016013256 L 8.7185884,-4.0017078 C 6.9730900,-1.6296469 6.9831476,1.6157441 8.7185878,4.0337352 z "
         style="fill-rule:evenodd;stroke-width:0.625;stroke-linejoin:round;stroke:#000000;stroke-opacity:1"
         id="path1045" />
    </marker>
    <marker
       style="overflow:visible;"
       id="Arrow2Mend"
       refX="0.0"
       refY="0.0"
       orient="auto"
       inkscape:stockid="Arrow2Mend"
       inkscape:isstock="true">
      <path
         transform="scale(0.6) rotate(180) translate(0,0)"
         d="M 8.7185878,4.0337352 L -2.2072895,0.016013256 L 8.7185884,-4.0017078 C 6.9730900,-1.6296469 6.9831476,1.6157441 8.7185878,4.0337352 z "
         style="fill-rule:evenodd;stroke-width:0.625;stroke-linejoin:round;stroke:#000000;stroke-opacity:1"
         id="path1051" />
    </marker>
    <marker
       style="overflow:visible;"
       id="Arrow1Lend"
       refX="0.0"
       refY="0.0"
       orient="auto"
       inkscape:stockid="Arrow1Lend"
       inkscape:isstock="true">
      <path
         transform="scale(0.8) rotate(180) translate(12.5,0)"
         style="fill-rule:evenodd;stroke:#000000;stroke-width:1pt;stroke-opacity:1"
         d="M 0.0,0.0 L 5.0,-5.0 L -12.5,0.0 L 5.0,5.0 L 0.0,0.0 z "
         id="path1027" />
    </marker>
  </defs>
  <sodipodi:namedview
     pagecolor="#ffffff"
     bordercolor="#666666"
     borderopacity="1"
     objecttolerance="10"
     gridtolerance="10"
     guidetolerance="10"
     inkscape:pageopacity="0"
     inkscape:pageshadow="2"
     inkscape:window-width="1920"
     inkscape:window-height="1131"
     id="namedview193"
     showgrid="false"
     inkscape:zoom="1.1642099"
     inkscape:cx="331.57361"
     inkscape:cy="249.64872"
     inkscape:window-x="0"
     inkscape:window-y="32"
     inkscape:window-maximized="1"
     inkscape:current-layer="svg191"
     inkscape:document-rotation="0"
     showguides="true"
     inkscape:guide-bbox="true">
    <sodipodi:guide
       position="794.6269,-273.9937"
       orientation="0,-1"
       id="guide2634" />
  </sodipodi:namedview>
  <clipPath
     id="p.0">
    <path
       d="m0 0l819.0866 0l0 517.69556l-819.0866 0l0 -517.69556z"
       clip-rule="nonzero"
       id="path2" />
  </clipPath>
  <rect
     style="fill:none;fill-opacity:1;stroke:#000000;stroke-width:0.879124;stroke-miterlimit:10;stroke-dasharray:none;stroke-opacity:1"
     id="rect1870"
     width="136.25349"
     height="117.63272"
     x="336.89523"
     y="183.81059" />
  <g
     clip-path="url(#p.0)"
     id="g189"
     transform="translate(18.434877,1.7911233)">
    <path
       fill="#000000"
       fill-opacity="0"
       d="M 70,0 H 889.0866 V 517.69556 H 70 Z"
       fill-rule="evenodd"
       id="path5" />
    <path
       fill="#000000"
       fill-opacity="0"
       d="M 282.16887,163.99475 H 701.41295 V 360.62466 H 282.16887 Z"
       fill-rule="evenodd"
       id="path7" />
    <path
       stroke="#666666"
       stroke-width="0.656984"
       stroke-linejoin="round"
       stroke-linecap="butt"
       stroke-dasharray="2.62792, 1.97094"
       d="M 289.11867,154.61789 H 483.55229 V 337.61877 H 289.11867 Z"
       fill-rule="evenodd"
       id="path9" />
    <path
       fill="#000000"
       fill-opacity="0"
       d="m 102.16404,213.90027 h 114.14172 v 97.88977 H 102.16404 Z"
       fill-rule="evenodd"
       id="path11" />
    <path
       stroke="#666666"
       stroke-width="1"
       stroke-linejoin="round"
       stroke-linecap="butt"
       stroke-dasharray="4, 3"
       d="m 102.16404,197.90027 h 114.14172 v 97.88977 H 102.16404 Z"
       fill-rule="evenodd"
       id="path13" />
    <path
       fill="#f3f3f3"
       d="m 226.94226,71.81778 h 98.27042 v 46.57691 c -49.13257,0 -49.13257,17.92045 -98.27042,8.96022 z m 8.09627,0 v -6.038414 h 97.59926 v 46.869094 c -3.7099,0 -7.42511,0.32465 -7.42511,0.32465 V 71.81778 Z m 7.61009,-6.038414 v -5.892315 h 98.44482 v 46.722999 c -4.22781,0 -8.45565,0.24349 -8.45565,0.24349 V 65.779365 Z"
       fill-rule="evenodd"
       id="path15" />
    <path
       fill="#000000"
       fill-opacity="0"
       d="m 226.94226,71.81778 h 98.27042 v 46.57691 c -49.13257,0 -49.13257,17.92045 -98.27042,8.96022 z m 8.09627,0 v -6.038414 h 97.59926 v 46.869094 c -3.7099,0 -7.42511,0.32465 -7.42511,0.32465 M 242.64862,65.779367 v -5.892315 h 98.44482 v 46.723008 c -4.22781,0 -8.45566,0.24348 -8.45566,0.24348"
       fill-rule="evenodd"
       id="path17" />
    <path
       fill="#000000"
       fill-opacity="0"
       d="m 226.94226,127.35491 c 49.13785,8.96023 49.13785,-8.96022 98.27042,-8.96022 v -5.42158 c 0,0 3.71521,-0.32465 7.42511,-0.32465 v -5.79492 c 0,0 4.22784,-0.24349 8.45566,-0.24349 v -46.723 h -98.44483 v 5.892315 h -7.61009 v 6.038414 h -8.09627 z"
       fill-rule="evenodd"
       id="path19" />
    <path
       stroke="#000000"
       stroke-width="1"
       stroke-linejoin="round"
       stroke-linecap="butt"
       d="m 226.94226,71.81778 h 98.27042 v 46.57691 c -49.13257,0 -49.13257,17.92045 -98.27042,8.96022 z m 8.09627,0 v -6.038414 h 97.59926 v 46.869094 c -3.7099,0 -7.42511,0.32465 -7.42511,0.32465 M 242.64862,65.779367 v -5.892315 h 98.44482 v 46.723008 c -4.22781,0 -8.45566,0.24348 -8.45566,0.24348"
       fill-rule="evenodd"
       id="path21" />
    <path
       fill="#f3f3f3"
       d="m 517.81776,208.65198 h 158.46307 v 58.96063 H 517.81776 Z"
       fill-rule="evenodd"
       id="path25"
       style="stroke-width:1.07707" />
    <path
       stroke="#000000"
       stroke-width="1.08022"
       stroke-linejoin="round"
       stroke-linecap="butt"
       d="M 517.00893,208.69209 H 676.62096 V 267.5725 H 517.00893 Z"
       fill-rule="evenodd"
       id="path27" />
    <path
       fill="#f3f3f3"
       d="m 134.90881,242.89835 v 0 c 0,-13.3613 10.83148,-24.19278 24.19279,-24.19278 v 0 c 6.41633,0 12.56986,2.54887 17.10689,7.08591 4.53703,4.53701 7.0859,10.69055 7.0859,17.10687 v 0 c 0,13.36133 -10.83148,24.19281 -24.19279,24.19281 v 0 c -13.36131,0 -24.19279,-10.83148 -24.19279,-24.19281 z"
       fill-rule="evenodd"
       id="path31" />
    <path
       stroke="#000000"
       stroke-width="1"
       stroke-linejoin="round"
       stroke-linecap="butt"
       d="m 135.04302,242.84467 v 0 c 0,-13.3613 10.83148,-24.19278 24.1928,-24.19278 v 0 c 6.41632,0 12.56985,2.54887 17.10688,7.08591 4.53703,4.53701 7.0859,10.69055 7.0859,17.10687 v 0 c 0,13.36133 -10.83148,24.19281 -24.19278,24.19281 v 0 c -13.36132,0 -24.1928,-10.83148 -24.1928,-24.19281 z"
       fill-rule="evenodd"
       id="path33" />
    <path
       fill="#000000"
       fill-opacity="0"
       d="m 159.23582,236.65189 v 23.57828"
       fill-rule="evenodd"
       id="path35" />
    <path
       stroke="#000000"
       stroke-width="2.02331"
       stroke-linejoin="round"
       stroke-linecap="butt"
       d="m 159.23582,218.65189 v 24.13114"
       fill-rule="evenodd"
       id="path37" />
    <path
       fill="#000000"
       fill-opacity="0"
       d="m 176.3427,277.95157 -16.6568,-17.6918"
       fill-rule="evenodd"
       id="path39" />
    <path
       stroke="#000000"
       stroke-width="2.05063"
       stroke-linejoin="round"
       stroke-linecap="butt"
       d="M 176.33469,259.94384 158.96155,242.11189"
       fill-rule="evenodd"
       id="path41" />
    <path
       fill="#000000"
       fill-opacity="0"
       d="M 102.15496,181.45932 H 216.2967 v 33.00787 H 102.15496 Z"
       fill-rule="evenodd"
       id="path43" />
    <path
       fill="#d9d2e9"
       d="m 336.4567,407.2257 v 0 c 0,6.05774 21.19421,10.96851 47.33859,10.96851 26.14438,0 47.33857,-4.91077 47.33857,-10.96851 v 65.81104 c 0,6.05773 -21.19419,10.9685 -47.33857,10.9685 -26.14438,0 -47.33859,-4.91077 -47.33859,-10.9685 z"
       fill-rule="evenodd"
       id="path47" />
    <path
       fill="#e8e4f1"
       d="m 336.4567,407.2257 v 0 c 0,-6.05771 21.19421,-10.96848 47.33859,-10.96848 26.14438,0 47.33857,4.91077 47.33857,10.96848 v 0 c 0,6.05774 -21.19419,10.96851 -47.33857,10.96851 -26.14438,0 -47.33859,-4.91077 -47.33859,-10.96851 z"
       fill-rule="evenodd"
       id="path49" />
    <path
       fill="#000000"
       fill-opacity="0"
       d="m 431.13385,407.2257 v 0 c 0,6.05774 -21.19418,10.96851 -47.33856,10.96851 -26.14438,0 -47.3386,-4.91077 -47.3386,-10.96851 v 0 c 0,-6.05771 21.19422,-10.96848 47.3386,-10.96848 26.14438,0 47.33856,4.91077 47.33856,10.96848 v 65.81104 c 0,6.05773 -21.19418,10.9685 -47.33856,10.9685 -26.14438,0 -47.3386,-4.91077 -47.3386,-10.9685 V 407.2257"
       fill-rule="evenodd"
       id="path51" />
    <path
       stroke="#000000"
       stroke-width="1"
       stroke-linejoin="round"
       stroke-linecap="butt"
       d="m 431.13385,407.2257 v 0 c 0,6.05774 -21.19418,10.96851 -47.33856,10.96851 -26.14438,0 -47.3386,-4.91077 -47.3386,-10.96851 v 0 c 0,-6.05771 21.19422,-10.96848 47.3386,-10.96848 26.14438,0 47.33856,4.91077 47.33856,10.96848 v 65.81104 c 0,6.05773 -21.19418,10.9685 -47.33856,10.9685 -26.14438,0 -47.3386,-4.91077 -47.3386,-10.9685 V 407.2257"
       fill-rule="evenodd"
       id="path53" />
    <path
       fill="#d9d2e9"
       d="M 318.46036,182.11656 H 454.08658 V 299.65218 H 318.46036 Z"
       fill-rule="evenodd"
       id="path59"
       style="stroke-width:1.40687" />
    <path
       fill="#000000"
       fill-opacity="0"
       d="m 500.62426,225.62862 h 136.59842 v 33.00789 H 500.62426 Z"
       fill-rule="evenodd"
       id="path73" />
    <path
       fill="#000000"
       fill-opacity="0"
       d="M 183.4286,262.84467 H 309.50735"
       fill-rule="evenodd"
       id="path77" />
    <path
       stroke="#000000"
       stroke-width="1"
       stroke-linejoin="round"
       stroke-linecap="butt"
       d="m 216.77898,242.84467 h 70.72836"
       fill-rule="evenodd"
       id="path79"
       style="fill:#000000;fill-opacity:1;stroke:#000000;stroke-width:0.767475;stroke-miterlimit:10;stroke-dasharray:none;stroke-opacity:1;marker-end:url(#marker1726)" />
    <path
       fill="#000000"
       fill-opacity="0"
       d="M 276.08011,127.35491 377.78092,233.37066"
       fill-rule="evenodd"
       id="path83" />
    <path
       stroke="#000000"
       stroke-width="0.566599"
       stroke-linejoin="round"
       stroke-linecap="butt"
       d="m 278.08424,125.7815 60.88613,55.31947"
       fill-rule="evenodd"
       id="path85"
       style="stroke-width:1;stroke-miterlimit:10;stroke-dasharray:none;marker-end:url(#marker2462)" />
    <path
       fill="#000000"
       fill-opacity="0"
       d="M 377.7953,292.32416 V 396.26117"
       fill-rule="evenodd"
       id="path89" />
    <path
       fill="#000000"
       fill-opacity="0"
       d="m 446.09448,262.84384 91.77954,-49.88977"
       fill-rule="evenodd"
       id="path95" />
    <path
       fill="#000000"
       fill-opacity="0"
       d="m 446.09448,262.84384 91.77954,49.92126"
       fill-rule="evenodd"
       id="path99" />
    <path
       fill="#000000"
       fill-opacity="0"
       d="M 425.13385,440.13123 H 606.17322 V 342.24146"
       fill-rule="evenodd"
       id="path105" />
    <path
       fill="#000000"
       fill-opacity="0"
       d="m 587.27045,130.0105 h 114.14172 v 33.00787 H 587.27045 Z"
       fill-rule="evenodd"
       id="path111" />
    <path
       fill="#000000"
       fill-opacity="0"
       d="m 216.40683,212.64043 h 65.76378 v 49.92125 h -65.76378 z"
       fill-rule="evenodd"
       id="path115" />
    <path
       fill="#000000"
       d="m 253.23819,239.39063 h -7.46875 v -1.46875 h 3.0625 v -8.70313 l -2.85938,1.54688 -0.57812,-1.34375 3.78125,-1.98438 h 1.40625 v 10.48438 h 2.65625 z"
       fill-rule="nonzero"
       id="path117" />
    <path
       fill="#000000"
       fill-opacity="0"
       d="m 396.5,160.54855 h 65.76379 v 70.11024 H 396.5 Z"
       fill-rule="evenodd"
       id="path119" />
    <path
       fill="#000000"
       d="m 460.06982,149.7558 h -7.84375 v -1.42188 l 3.07812,-3.0625 q 0.75,-0.75 1.21875,-1.29687 0.48438,-0.54688 0.75,-0.98438 0.26563,-0.45312 0.34375,-0.85937 0.0937,-0.40625 0.0937,-0.85938 0,-0.4375 -0.125,-0.82812 -0.10937,-0.40625 -0.35937,-0.70313 -0.23438,-0.3125 -0.64063,-0.48437 -0.39062,-0.17188 -0.9375,-0.17188 -0.75,0 -1.375,0.34375 -0.60937,0.32813 -1.125,0.875 l -0.875,-1.04687 q 0.67188,-0.71875 1.54688,-1.14063 0.875,-0.42187 2.04687,-0.42187 0.79688,0 1.4375,0.23437 0.65625,0.23438 1.125,0.6875 0.48438,0.4375 0.73438,1.09375 0.26562,0.64063 0.26562,1.45313 0,0.67187 -0.1875,1.26562 -0.17187,0.57813 -0.54687,1.15625 -0.375,0.57813 -0.9375,1.20313 -0.54688,0.60937 -1.3125,1.35937 l -2.17188,2.09375 h 5.79688 z m 8.39792,0 -0.0312,-1.23438 q -0.75,0.75 -1.51563,1.07813 -0.76562,0.3125 -1.625,0.3125 -0.78125,0 -1.34375,-0.1875 -0.54687,-0.20313 -0.90625,-0.54688 -0.35937,-0.35937 -0.53125,-0.82812 -0.15625,-0.48438 -0.15625,-1.03125 0,-1.375 1.01563,-2.15625 1.03125,-0.78125 3.03125,-0.78125 h 1.89062 v -0.79688 q 0,-0.8125 -0.51562,-1.29687 -0.51563,-0.5 -1.57813,-0.5 -0.78125,0 -1.53125,0.1875 -0.75,0.17187 -1.54687,0.48437 v -1.4375 q 0.29687,-0.10937 0.65625,-0.20312 0.375,-0.10938 0.78125,-0.1875 0.40625,-0.0781 0.85937,-0.125 0.45313,-0.0625 0.90625,-0.0625 0.82813,0 1.48438,0.1875 0.67187,0.17187 1.125,0.54687 0.46875,0.375 0.70312,0.95313 0.25,0.5625 0.25,1.32812 v 6.29688 z m -0.17188,-4.15625 h -2.01562 q -0.57813,0 -1.01563,0.125 -0.42187,0.10937 -0.70312,0.32812 -0.26563,0.21875 -0.40625,0.53125 -0.125,0.29688 -0.125,0.67188 0,0.26562 0.0781,0.51562 0.0781,0.23438 0.26563,0.42188 0.1875,0.1875 0.46875,0.29687 0.29687,0.10938 0.71875,0.10938 0.54687,0 1.25,-0.32813 0.70312,-0.34375 1.48437,-1.0625 z"
       fill-rule="nonzero"
       id="path121" />
    <path
       fill="#000000"
       fill-opacity="0"
       d="m 379.063,292.32547 h 65.76379 V 362.4357 H 379.063 Z"
       fill-rule="evenodd"
       id="path123" />
    <path
       fill="#000000"
       fill-opacity="0"
       d="m 473.41995,225.94489 h 65.76376 v 70.11023 h -65.76376 z"
       fill-rule="evenodd"
       id="path127" />
    <path
       fill="#000000"
       fill-opacity="0"
       d="m 539.18372,370.021 h 65.76379 v 70.11023 h -65.76379 z"
       fill-rule="evenodd"
       id="path131" />
    <path
       fill="#000000"
       fill-opacity="0"
       d="m 625.47504,81.5538 h 45.07092 v 70.11024 h -45.07092 z"
       fill-rule="evenodd"
       id="path135" />
    <path
       fill="#f3f3f3"
       d="m 383.6168,59.40131 h 136.59842 v 58.96062 H 383.6168 Z"
       fill-rule="evenodd"
       id="path139" />
    <path
       stroke="#000000"
       stroke-width="1"
       stroke-linejoin="round"
       stroke-linecap="butt"
       d="m 383.6168,59.40131 h 136.59842 v 58.96062 H 383.6168 Z"
       fill-rule="evenodd"
       id="path141" />
    <path
       fill="#000000"
       fill-opacity="0"
       d="M 451.91602,128.36194 377.80579,233.36981"
       fill-rule="evenodd"
       id="path147" />
    <path
       fill="#000000"
       fill-opacity="0"
       d="m 292.5,160.54855 h 65.76379 v 70.11024 H 292.5 Z"
       fill-rule="evenodd"
       id="path155" />
    <path
       fill="#000000"
       d="m 310.06669,143.03008 h -7.84375 v -1.42188 l 3.07812,-3.0625 q 0.75,-0.75 1.21875,-1.29687 0.48438,-0.54688 0.75,-0.98438 0.26563,-0.45312 0.34375,-0.85937 0.0937,-0.40625 0.0937,-0.85938 0,-0.4375 -0.125,-0.82812 -0.10937,-0.40625 -0.35937,-0.70313 -0.23438,-0.3125 -0.64063,-0.48437 -0.39062,-0.17188 -0.9375,-0.17188 -0.75,0 -1.375,0.34375 -0.60937,0.32813 -1.125,0.875 l -0.875,-1.04687 q 0.67188,-0.71875 1.54688,-1.14063 0.875,-0.42187 2.04687,-0.42187 0.79688,0 1.4375,0.23437 0.65625,0.23438 1.125,0.6875 0.48438,0.4375 0.73438,1.09375 0.26562,0.64063 0.26562,1.45313 0,0.67187 -0.1875,1.26562 -0.17187,0.57813 -0.54687,1.15625 -0.375,0.57813 -0.9375,1.20313 -0.54688,0.60937 -1.3125,1.35937 l -2.17188,2.09375 h 5.79688 z m 10.35104,-4.73438 q 0,1.14063 -0.32812,2.04688 -0.3125,0.89062 -0.89063,1.51562 -0.57812,0.60938 -1.40625,0.95313 -0.82812,0.32812 -1.85937,0.32812 -0.8125,0 -1.67188,-0.15625 -0.84375,-0.15625 -1.67187,-0.48437 v -12.34375 h 1.59375 v 3.54687 l -0.0781,1.6875 q 0.6875,-0.90625 1.45313,-1.28125 0.78125,-0.39062 1.6875,-0.39062 0.78125,0 1.375,0.32812 0.59375,0.32813 0.98437,0.9375 0.40625,0.59375 0.60938,1.4375 0.20312,0.82813 0.20312,1.875 z m -1.625,0.0625 q 0,-0.71875 -0.10937,-1.3125 -0.10938,-0.60937 -0.34375,-1.03125 -0.21875,-0.42187 -0.57813,-0.65625 -0.34375,-0.25 -0.84375,-0.25 -0.29687,0 -0.60937,0.0937 -0.3125,0.0937 -0.64063,0.32813 -0.32812,0.21875 -0.70312,0.59375 -0.35938,0.35937 -0.78125,0.90625 v 4.4375 q 0.45312,0.17187 0.9375,0.28125 0.48437,0.10937 0.92187,0.10937 0.54688,0 1.04688,-0.17187 0.5,-0.17188 0.875,-0.57813 0.375,-0.40625 0.59375,-1.07812 0.23437,-0.67188 0.23437,-1.67188 z"
       fill-rule="nonzero"
       id="path157"
       inkscape:transform-center-x="-9.9901816"
       inkscape:transform-center-y="9.5582184" />
    <path
       fill="#000000"
       fill-opacity="0"
       d="M 550.71915,283.0706 V 44.40202 h -98.80313 v 24.99931"
       fill-rule="evenodd"
       id="path159" />
    <path
       fill="#000000"
       fill-opacity="0"
       d="m 403.53018,21.020998 h 48.37796 v 48.377953 h -48.37796 z"
       fill-rule="evenodd"
       id="path171" />
    <path
       fill="#000000"
       fill-opacity="0"
       d="M 530.26402,262.79922 V 221.98033"
       fill-rule="evenodd"
       id="path175" />
    <path
       fill="#000000"
       fill-opacity="0"
       d="M 567.83728,183.41705 V 98.88162 h -47.62207"
       fill-rule="evenodd"
       id="path179" />
    <path
       fill="#000000"
       fill-opacity="0"
       d="M 786.54596,233.36456 V 83.31732 H 520.4357"
       fill-rule="evenodd"
       id="path183" />
    <text
       xml:space="preserve"
       style="font-style:normal;font-weight:normal;font-size:40px;line-height:1.25;font-family:sans-serif;fill:#000000;fill-opacity:1;stroke:none"
       x="473.32437"
       y="21.724724"
       id="text1340"><tspan
         sodipodi:role="line"
         id="tspan1338"
         x="473.32437"
         y="21.724724"
         style="font-style:normal;font-variant:normal;font-weight:normal;font-stretch:normal;font-family:'Lohit Gujarati';-inkscape-font-specification:'Lohit Gujarati'" /></text>
    <text
       xml:space="preserve"
       style="font-style:normal;font-weight:normal;font-size:40px;line-height:1.25;font-family:sans-serif;fill:#000000;fill-opacity:1;stroke:none"
       x="571.90277"
       y="151.61635"
       id="text1796"><tspan
         sodipodi:role="line"
         id="tspan1794"
         x="571.90277"
         y="151.61635" /></text>
    <text
       xml:space="preserve"
       style="font-style:normal;font-weight:normal;font-size:18.6667px;line-height:1.25;font-family:sans-serif;fill:#000000;fill-opacity:1;stroke:none"
       x="399.91367"
       y="323.24966"
       id="text1800"><tspan
         sodipodi:role="line"
         id="tspan1798"
         x="399.91367"
         y="323.24966"
         style="font-style:normal;font-variant:normal;font-weight:500;font-stretch:normal;font-size:18.6667px;font-family:'Source Code Pro';-inkscape-font-specification:'Source Code Pro Medium'">Batch</tspan></text>
    <text
       xml:space="preserve"
       style="font-style:normal;font-weight:normal;font-size:18.6667px;line-height:1.25;font-family:sans-serif;fill:#000000;fill-opacity:1;stroke:none"
       x="412.73862"
       y="80.937416"
       id="text1804"><tspan
         sodipodi:role="line"
         id="tspan1802"
         x="412.73862"
         y="80.937416"
         style="font-style:normal;font-variant:normal;font-weight:500;font-stretch:normal;font-size:18.6667px;font-family:'Source Code Pro';-inkscape-font-specification:'Source Code Pro Medium'">Curator</tspan><tspan
         sodipodi:role="line"
         x="412.73862"
         y="104.45309"
         id="tspan1806"
         style="font-style:normal;font-variant:normal;font-weight:500;font-stretch:normal;font-size:18.6667px;font-family:'Source Code Pro';-inkscape-font-specification:'Source Code Pro Medium'">service</tspan></text>
    <text
       xml:space="preserve"
       style="font-style:normal;font-weight:normal;font-size:18.6667px;line-height:1.25;font-family:sans-serif;fill:#000000;fill-opacity:1;stroke:none"
       x="237.8576"
       y="100.46034"
       id="text1810"><tspan
         sodipodi:role="line"
         id="tspan1808"
         x="237.8576"
         y="100.46034"
         style="font-style:normal;font-variant:normal;font-weight:500;font-stretch:normal;font-size:18.6667px;font-family:'Source Code Pro';-inkscape-font-specification:'Source Code Pro Medium'">Sources</tspan></text>
    <text
       xml:space="preserve"
       style="font-style:normal;font-weight:normal;font-size:18.6667px;line-height:1.25;font-family:sans-serif;fill:#000000;fill-opacity:1;stroke:none"
       x="97.40139"
       y="189.22998"
       id="text1814"><tspan
         sodipodi:role="line"
         id="tspan1812"
         x="97.40139"
         y="189.22998"
         style="font-style:normal;font-variant:normal;font-weight:500;font-stretch:normal;font-size:18.6667px;font-family:'Source Code Pro';-inkscape-font-specification:'Source Code Pro Medium'">EventBridge</tspan></text>
    <text
       xml:space="preserve"
       style="font-style:normal;font-weight:normal;font-size:18.6667px;line-height:1.25;font-family:sans-serif;text-align:center;text-anchor:middle;fill:#000000;fill-opacity:1;stroke:none"
       x="384.71747"
       y="221.79704"
       id="text1820"><tspan
         sodipodi:role="line"
         id="tspan1818"
         x="384.71747"
         y="221.79704"
         style="font-style:normal;font-variant:normal;font-weight:500;font-stretch:normal;font-size:18.6667px;font-family:'Source Code Pro';-inkscape-font-specification:'Source Code Pro Medium';text-align:center;text-anchor:middle">Retrieval</tspan><tspan
         sodipodi:role="line"
         x="384.71747"
         y="245.31271"
         id="tspan1822"
         style="font-style:normal;font-variant:normal;font-weight:500;font-stretch:normal;font-size:18.6667px;font-family:'Source Code Pro';-inkscape-font-specification:'Source Code Pro Medium';text-align:center;text-anchor:middle">+</tspan><tspan
         sodipodi:role="line"
         x="384.71747"
         y="268.82837"
         style="font-style:normal;font-variant:normal;font-weight:500;font-stretch:normal;font-size:18.6667px;font-family:'Source Code Pro';-inkscape-font-specification:'Source Code Pro Medium';text-align:center;text-anchor:middle"
         id="tspan280">Parsing</tspan></text>
    <text
       xml:space="preserve"
       style="font-style:normal;font-weight:normal;font-size:16px;line-height:1.25;font-family:sans-serif;fill:#000000;fill-opacity:1;stroke:none"
       x="353.67917"
       y="440.90933"
       id="text1830"><tspan
         sodipodi:role="line"
         id="tspan1828"
         x="353.67917"
         y="440.90933"
         style="font-style:normal;font-variant:normal;font-weight:500;font-stretch:normal;font-size:16px;font-family:'Source Code Pro';-inkscape-font-specification:'Source Code Pro Medium'">S3 raw</tspan><tspan
         sodipodi:role="line"
         x="353.67917"
         y="461.06558"
         id="tspan1832"
         style="font-style:normal;font-variant:normal;font-weight:500;font-stretch:normal;font-size:16px;font-family:'Source Code Pro';-inkscape-font-specification:'Source Code Pro Medium'">sources</tspan></text>
    <text
       xml:space="preserve"
       style="font-style:normal;font-weight:normal;font-size:18.6667px;line-height:1.25;font-family:sans-serif;fill:#000000;fill-opacity:1;stroke:none"
       x="528.15845"
       y="243.13777"
       id="text1838"><tspan
         sodipodi:role="line"
         x="528.15845"
         y="243.13777"
         id="tspan1840"
         style="font-style:normal;font-variant:normal;font-weight:500;font-stretch:normal;font-size:18.6667px;font-family:'Source Code Pro';-inkscape-font-specification:'Source Code Pro Medium'">Data service</tspan></text>
    <path
       style="fill:none;stroke:#000000;stroke-width:1px;stroke-linecap:butt;stroke-linejoin:miter;stroke-opacity:1;marker-start:url(#Arrow2Mstart);marker-end:url(#marker2022)"
       d="m 384.01269,300.44107 v 96.15936"
       id="path1896" />
    <path
       style="fill:none;stroke:#000000;stroke-width:1.11221px;stroke-linecap:butt;stroke-linejoin:miter;stroke-opacity:1;marker-end:url(#marker2344)"
       d="m 454.47664,118.74867 c -51.86093,62.51106 -51.86093,62.51106 -51.86093,62.51106"
       id="path2602" />
    <path
       style="fill:none;stroke:#000000;stroke-width:1;stroke-linecap:butt;stroke-linejoin:miter;stroke-miterlimit:10;stroke-dasharray:8, 8;stroke-dashoffset:0;stroke-opacity:1"
       d="m 520.4357,83.31732 h 75.50167 v 123.47656"
       id="path2666" />
  </g>
</svg>
