<svg width="129" height="32" viewBox="0 0 129 32" fill="none" xmlns="http://www.w3.org/2000/svg">
<path d="M11.536 21.5501C11.3857 21.3048 11.2729 21.1003 11.1226 20.8549C11.4232 20.6096 11.7238 20.4051 12.062 20.1598C12.2123 20.3643 12.3626 20.5687 12.5129 20.8141C12.1372 21.1003 11.8741 21.3048 11.536 21.5501Z" fill="black"/>
<path d="M12.7041 20.8549C12.6346 20.6096 12.5825 20.4051 12.5129 20.2007C12.652 19.9553 12.7736 19.71 12.93 19.4646C13.0169 19.6691 13.0865 19.7917 13.2081 20.0371C13.0343 20.3233 12.8779 20.5687 12.7041 20.8549Z" fill="black"/>
<path d="M10.2487 0C13.2147 0 15.3334 0.569508 16.5515 1.70853C16.7369 1.49157 16.9223 1.05767 17.1342 0.325438H19.4646L18.3523 5.83071H17.0282C16.6045 4.23065 15.8895 3.06451 14.7243 2.27804C13.559 1.49157 12.1554 1.08478 10.54 1.08478C7.49454 1.08478 5.48187 2.68484 4.47554 5.85783C3.86644 7.78332 3.73402 10.0071 4.02533 12.5835C4.47553 16.1633 5.90559 18.4684 8.39494 19.3634C9.40127 19.7159 11.8906 19.8786 13.5325 18.3599C13.7709 18.1159 13.9033 17.8989 13.9298 17.7091L14.7772 12.5835H11.361V11.5529H17.4784L16.2602 17.7633C16.0749 18.7396 16.1808 19.4447 14.6448 20.0142C13.1088 20.5837 11.5199 20.8549 9.90444 20.8549C8.28901 20.8549 7.5475 20.5837 6.1969 20.0414C4.87277 19.499 3.76051 18.7396 2.83362 17.7904C0.953364 15.8378 0 13.3971 0 10.4953C0 7.56636 0.953364 5.09848 2.83362 3.11875C4.0783 1.78989 5.66725 0.867824 7.5475 0.379672C8.50087 0.135596 9.40127 0 10.2487 0Z" fill="black"/>
<path d="M10.0799 31.2824C12.1915 31.2824 13.9033 29.5706 13.9033 27.459C13.9033 25.3474 12.1915 23.6356 10.0799 23.6356C7.96827 23.6356 6.25647 25.3474 6.25647 27.459C6.25647 29.5706 7.96827 31.2824 10.0799 31.2824Z" fill="#0E7569"/>
<path d="M18.6094 30.7898L15.9888 31.2003L22.6094 0H25.9749C23.8783 6.13059 21.0922 17.516 19.4646 23.7013H19.7956L20.4577 21.895C21.9473 17.7349 23.5749 15.0528 25.3128 13.8212C26.1404 13.2738 26.83 12.918 27.3542 12.7538C27.9059 12.5896 28.5955 12.5075 29.3955 12.5075C30.2231 12.5075 30.9403 12.8359 31.5196 13.4928C32.0989 14.1496 32.4024 15.0802 32.4024 16.257C32.4024 17.4339 31.7127 19.596 30.361 22.7708C29.0369 25.9181 28.3748 27.9434 28.3748 28.8192C28.3748 29.695 28.7059 30.1329 29.4231 30.1329C29.9472 30.1329 30.5265 29.8045 31.1334 29.0929C31.7403 28.3813 32.2645 27.3687 32.7058 26.0824L33.3679 26.2466C32.1817 29.5856 30.6369 31.2824 28.7059 31.2824C26.9955 31.2824 26.1404 30.3519 26.1404 28.4908C26.1404 27.6971 26.7749 25.7266 28.0162 22.5518C29.2852 19.4044 29.9197 17.3518 29.9197 16.4486C29.9197 14.7244 29.2852 13.8486 28.0162 13.8486C26.6369 13.8486 25.1473 14.9707 23.5197 17.1875C21.6439 19.8423 20.0715 24.3855 18.6094 30.7898Z" fill="black"/>
<path d="M43.1002 0.69519H42.405V31.2824H43.1002V0.69519Z" fill="black"/>
<path d="M58.9166 0.139038V27.4117H77.9586V31.2824H54.8235V0.139038H58.9166Z" fill="#0E7569"/>
<path d="M86.7945 10.1939V31.2824H82.9683V10.1939H86.7945ZM82.7458 1.78519H87.0169V6.27873H82.7458V1.78519Z" fill="#0E7569"/>
<path d="M100.659 31.7273C98.2864 31.7273 96.2991 31.1934 94.6974 30.1257C93.1254 29.0282 92.028 27.5749 91.4051 25.7656L94.564 24.1194C95.1572 25.6025 95.9432 26.6851 96.922 27.3673C97.9304 28.0198 99.2355 28.346 100.837 28.346C102.231 28.346 103.329 28.0643 104.129 27.5007C104.96 26.9372 105.375 26.1957 105.375 25.2762C105.375 24.2677 104.975 23.4817 104.174 22.9182C103.403 22.325 101.949 21.8801 99.8139 21.5835C94.9792 20.8716 92.5619 18.8547 92.5619 15.5328C92.5619 13.8421 93.2737 12.4629 94.6974 11.3951C96.1508 10.2977 97.9749 9.749 100.17 9.749C102.157 9.749 103.759 10.1642 104.975 10.9947C106.191 11.7956 107.125 12.9375 107.778 14.4205L104.797 16.0667C104.441 14.9989 103.863 14.1981 103.062 13.6642C102.261 13.1303 101.297 12.8633 100.17 12.8633C99.013 12.8633 98.0342 13.1154 97.2334 13.6197C96.4622 14.0942 96.0767 14.7468 96.0767 15.5773C96.0767 16.4967 96.4919 17.1938 97.3224 17.6683C98.1825 18.1132 99.6507 18.484 101.727 18.7806C106.651 19.4628 109.112 21.5538 109.112 25.0537C109.112 26.3588 108.742 27.5156 108 28.524C107.259 29.5325 106.235 30.3185 104.93 30.882C103.655 31.4456 102.231 31.7273 100.659 31.7273Z" fill="#0E7569"/>
<path d="M122.415 31.7273C120.191 31.7273 118.485 31.1341 117.299 29.9477C116.113 28.7613 115.519 27.1151 115.519 25.0093V13.4417H111.337V10.1939H115.519V3.65379H119.39V10.1939H126.953V13.4417H119.39V25.1872C119.39 26.1957 119.657 26.9817 120.191 27.5452C120.754 28.0791 121.451 28.346 122.282 28.346C123.172 28.346 123.869 28.0939 124.373 27.5897C124.907 27.0558 125.263 26.2105 125.441 25.0537L129 25.8546C128.703 27.7528 127.977 29.2062 126.82 30.2146C125.693 31.2231 124.225 31.7273 122.415 31.7273Z" fill="#0E7569"/>
</svg>
