<svg width="85" height="30" viewBox="0 0 245 82" fill="none" xmlns="http://www.w3.org/2000/svg">
<path d="M131.6 63.4115V18.6541L115.523 63.4115H105.903L89.87 18.6541V63.4115H83.5V15.2778H95.2L110.713 58.6501L126.183 15.2778H137.97V63.4115H131.6Z" fill="#0094E2"/>
<path d="M148.587 61.3771C146.507 59.5591 145.467 57.1351 145.467 54.1051C145.467 50.7721 146.593 48.2183 148.89 46.5301C151.143 44.842 154.047 43.9763 157.6 43.9763C160.027 43.9763 162.367 44.3226 164.533 45.0151L167.48 45.8376V42.4613C167.48 40.0806 166.743 38.2625 165.227 37.0073C163.71 35.752 161.76 35.1027 159.29 35.1027C156.95 35.1027 155.043 35.7087 153.527 36.8774C152.01 38.0894 151.057 39.7343 150.623 41.812L145.25 40.297C145.9 37.1804 147.46 34.7131 149.887 32.8518C152.357 30.9905 155.477 30.0815 159.29 30.0815C163.753 30.0815 167.177 31.207 169.56 33.5011C171.987 35.752 173.157 38.9118 173.157 42.9374V63.4116H167.437V58.2606C166.613 59.992 165.183 61.4204 163.19 62.5026C161.153 63.5847 158.857 64.1041 156.257 64.1041C153.223 64.1041 150.667 63.1951 148.587 61.3771ZM164.88 56.8321C166.613 55.4903 167.48 53.629 167.48 51.2483V50.5557L164.447 49.6467C162.15 48.9541 160.113 48.6078 158.38 48.6078C156.257 48.6078 154.61 49.0407 153.397 49.9064C152.183 50.7721 151.577 52.0707 151.577 53.7589C151.577 55.2739 152.14 56.4859 153.31 57.4381C154.437 58.3904 156.127 58.8666 158.25 58.8666C160.937 58.8666 163.147 58.2173 164.88 56.8321Z" fill="#0094E2"/>
<path d="M187.63 30.8176V36.9208C188.67 34.9297 190.273 33.3281 192.44 32.0296C194.607 30.731 196.903 30.125 199.33 30.125C202.233 30.125 204.79 30.8176 207.087 32.246C209.34 33.6744 211.117 35.6656 212.33 38.2194C213.587 40.7733 214.193 43.76 214.193 47.093C214.193 50.426 213.543 53.4127 212.243 55.9666C210.943 58.5204 209.123 60.5116 206.827 61.94C204.53 63.3684 201.887 64.061 198.94 64.061C196.6 64.061 194.477 63.5416 192.527 62.546C190.577 61.5504 189.06 60.122 187.933 58.304V77.0034H181.997V30.8176H187.63ZM189.147 53.4127C190.143 55.1874 191.443 56.5293 193.047 57.4383C194.65 58.3473 196.253 58.8234 197.987 58.8234C199.763 58.8234 201.453 58.3906 203.057 57.5248C204.66 56.6591 205.917 55.3173 206.87 53.5858C207.823 51.8111 208.3 49.6901 208.3 47.2229C208.3 44.7556 207.823 42.6346 206.87 40.8599C205.917 39.0851 204.617 37.7866 203.057 36.8776C201.453 35.9686 199.807 35.5357 197.987 35.5357C196.297 35.5357 194.65 36.0119 193.047 36.9641C191.443 37.9164 190.187 39.2583 189.147 41.033C188.15 42.8077 187.63 44.8854 187.63 47.2661C187.63 49.5603 188.15 51.638 189.147 53.4127Z" fill="#0094E2"/>
<path d="M25.3467 14.0659C30.2 14.0659 33.6667 14.9749 35.66 16.7929C35.9634 16.4466 36.2667 15.7541 36.6134 14.5854H40.4267L38.6067 23.3723H36.44C35.7467 20.8185 34.5767 18.9572 32.67 17.7019C30.7634 16.4466 28.4667 15.7973 25.8233 15.7973C20.84 15.7973 17.5467 18.3512 15.9 23.4156C14.9033 26.4889 14.6867 30.0383 15.1633 34.1505C15.9 39.8642 18.24 43.5435 22.3133 44.9719C23.96 45.5346 28.0334 45.7943 30.72 43.3703C31.11 42.9808 31.3267 42.6345 31.37 42.3315L32.7567 34.1505H27.1667V32.5056H37.1767L35.1834 42.4181C34.88 43.9763 35.0534 45.1018 32.54 46.0108C30.0267 46.9198 27.4267 47.3526 24.7833 47.3526C22.14 47.3526 20.9267 46.9198 18.7167 46.0541C16.55 45.1883 14.73 43.9763 13.2133 42.4613C10.1367 39.3448 8.57666 35.4491 8.57666 30.8175C8.57666 26.1426 10.1367 22.2036 13.2133 19.0438C15.25 16.9228 17.85 15.4511 20.9267 14.6719C22.4867 14.2823 23.96 14.0659 25.3467 14.0659Z" fill="#231F20"/>
<path d="M24.9135 63.9308C28.1443 63.9308 30.7635 61.3145 30.7635 58.0872C30.7635 54.8599 28.1443 52.2437 24.9135 52.2437C21.6826 52.2437 19.0635 54.8599 19.0635 58.0872C19.0635 61.3145 21.6826 63.9308 24.9135 63.9308Z" fill="#0094E2"/>
<path d="M39.2134 63.2384L35.0967 63.8877L45.4967 14.542H50.7834C47.49 24.238 43.1134 42.2449 40.5567 52.0274H41.0767L42.1167 49.1706C44.4567 42.5911 47.0134 38.3491 49.7434 36.4013C51.0434 35.5356 52.1267 34.9729 52.9501 34.7131C53.8167 34.4534 54.9001 34.3236 56.1567 34.3236C57.4567 34.3236 58.5834 34.843 59.4934 35.8818C60.4034 36.9207 60.8801 38.3924 60.8801 40.2537C60.8801 42.115 59.7967 45.5346 57.6734 50.5557C55.5934 55.5336 54.5534 58.7367 54.5534 60.1218C54.5534 61.507 55.0734 62.1996 56.2001 62.1996C57.0234 62.1996 57.9334 61.6801 58.8867 60.5547C59.8401 59.4293 60.6634 57.8277 61.3567 55.7933L62.3967 56.053C60.5334 61.3338 58.1067 64.0176 55.0734 64.0176C52.3867 64.0176 51.0434 62.5458 51.0434 59.6024C51.0434 58.3471 52.04 55.2306 53.99 50.2094C55.9834 45.2316 56.9801 41.9851 56.9801 40.5567C56.9801 37.8297 55.9834 36.4446 53.99 36.4446C51.8234 36.4446 49.4834 38.2193 46.9267 41.7254C43.98 45.9241 41.51 53.1096 39.2134 63.2384Z" fill="#231F20"/>
<path d="M71.2365 14.585H70.8032V63.9307H71.2365V14.585Z" fill="#231F20"/>
</svg>
