<svg width="16" height="16" viewBox="0 0 16 16" fill="none" xmlns="http://www.w3.org/2000/svg">
<circle cx="8" cy="8" r="8" fill="#BAC0BE"/>
<path d="M6.17726 4V8.761C6.17726 9.37433 6.34209 9.85733 6.67176 10.21C7.00142 10.555 7.44609 10.7275 8.00576 10.7275C8.56542 10.7275 9.00626 10.555 9.32826 10.21C9.65792 9.85733 9.82276 9.37433 9.82276 8.761V4H11.3753V8.7955C11.3753 9.47017 11.2373 10.0643 10.9613 10.578C10.6929 11.084 10.3058 11.475 9.79976 11.751C9.29376 12.027 8.69576 12.165 8.00576 12.165C7.31576 12.165 6.71392 12.027 6.20026 11.751C5.69426 11.475 5.30326 11.084 5.02726 10.578C4.75892 10.0643 4.62476 9.47017 4.62476 8.7955V4H6.17726Z" fill="white"/>
</svg>
