<svg width="16" height="16" viewBox="0 0 16 16" fill="none" xmlns="http://www.w3.org/2000/svg">
<circle cx="8" cy="8" r="8" fill="#BAC0BE"/>
<path d="M5 11.2727V4H7.86932C8.42093 4 8.89086 4.10535 9.27912 4.31605C9.66738 4.52438 9.96331 4.81439 10.1669 5.18608C10.3729 5.5554 10.4759 5.98153 10.4759 6.46449C10.4759 6.94744 10.3717 7.37358 10.1634 7.7429C9.95502 8.11222 9.65317 8.39986 9.25781 8.60582C8.86482 8.81179 8.38897 8.91477 7.83026 8.91477H6.00142V7.68253H7.58168C7.8776 7.68253 8.12145 7.63163 8.31321 7.52983C8.50734 7.42566 8.65175 7.28243 8.74645 7.10014C8.84351 6.91548 8.89205 6.7036 8.89205 6.46449C8.89205 6.22301 8.84351 6.01231 8.74645 5.83239C8.65175 5.65009 8.50734 5.50923 8.31321 5.4098C8.11908 5.308 7.87287 5.2571 7.57457 5.2571H6.53764V11.2727H5Z" fill="white"/>
<circle cx="8" cy="8" r="8" fill="#BAC0BE"/>
<path d="M5.63232 12V4.72729H8.50164C9.05325 4.72729 9.52319 4.83265 9.91144 5.04335C10.2997 5.25168 10.5956 5.54169 10.7992 5.91337C11.0052 6.28269 11.1082 6.70883 11.1082 7.19178C11.1082 7.67474 11.004 8.10087 10.7957 8.47019C10.5873 8.83951 10.2855 9.12715 9.89014 9.33312C9.49714 9.53908 9.02129 9.64207 8.46258 9.64207H6.63374V8.40982H8.214C8.50993 8.40982 8.75377 8.35892 8.94553 8.25712C9.13966 8.15296 9.28408 8.00973 9.37877 7.82744C9.47584 7.64278 9.52437 7.43089 9.52437 7.19178C9.52437 6.95031 9.47584 6.73961 9.37877 6.55968C9.28408 6.37739 9.13966 6.23653 8.94553 6.1371C8.75141 6.0353 8.50519 5.9844 8.2069 5.9844H7.16997V12H5.63232Z" fill="white"/>
<circle cx="8" cy="8" r="8" fill="#BAC0BE"/>
<path d="M6.25251 4V8.761C6.25251 9.37433 6.41735 9.85733 6.74701 10.21C7.07668 10.555 7.52135 10.7275 8.08101 10.7275C8.64068 10.7275 9.08151 10.555 9.40351 10.21C9.73318 9.85733 9.89801 9.37433 9.89801 8.761V4H11.4505V8.7955C11.4505 9.47017 11.3125 10.0643 11.0365 10.578C10.7682 11.084 10.381 11.475 9.87501 11.751C9.36901 12.027 8.77101 12.165 8.08101 12.165C7.39101 12.165 6.78918 12.027 6.27551 11.751C5.76951 11.475 5.37851 11.084 5.10251 10.578C4.83418 10.0643 4.70001 9.47017 4.70001 8.7955V4H6.25251Z" fill="white"/>
</svg>
