<svg width="16" height="16" viewBox="0 0 16 16" fill="none" xmlns="http://www.w3.org/2000/svg">
<circle cx="8" cy="8" r="8" fill="#BAC0BE"/>
<path d="M5.63232 12V4.72729H8.50164C9.05325 4.72729 9.52319 4.83265 9.91144 5.04335C10.2997 5.25168 10.5956 5.54169 10.7992 5.91337C11.0052 6.28269 11.1082 6.70883 11.1082 7.19178C11.1082 7.67474 11.004 8.10087 10.7957 8.47019C10.5873 8.83951 10.2855 9.12715 9.89014 9.33312C9.49714 9.53908 9.02129 9.64207 8.46258 9.64207H6.63374V8.40982H8.214C8.50993 8.40982 8.75377 8.35892 8.94553 8.25712C9.13966 8.15296 9.28408 8.00973 9.37877 7.82744C9.47584 7.64278 9.52437 7.43089 9.52437 7.19178C9.52437 6.95031 9.47584 6.73961 9.37877 6.55968C9.28408 6.37739 9.13966 6.23653 8.94553 6.1371C8.75141 6.0353 8.50519 5.9844 8.2069 5.9844H7.16997V12H5.63232Z" fill="white"/>
</svg>
